<svg width="413" height="413" viewBox="0 0 413 413" fill="none" xmlns="http://www.w3.org/2000/svg">
<circle cx="206.5" cy="206.5" r="206.5" fill="#F6F3FA"/>
<mask id="mask0_2887_357" style="mask-type:alpha" maskUnits="userSpaceOnUse" x="0" y="0" width="413" height="413">
<circle cx="206.5" cy="206.5" r="206.5" fill="#F6F3FA"/>
</mask>
<g mask="url(#mask0_2887_357)">
<path fill-rule="evenodd" clip-rule="evenodd" d="M75.6275 301.532C74.7497 301.423 73.8891 301.111 73.0342 300.864C71.729 300.483 70.4496 300.039 69.1903 299.532C66.5913 298.493 64.0698 297.264 61.706 295.76C57.8879 293.328 54.5143 290.211 51.9699 286.458L51.7952 286.197C50.3425 283.987 47.663 279.081 50.6675 277.403C48.7311 275.788 46.9009 272.886 47.0042 270.646C47.1505 267.478 51.0403 267.521 53.0512 268.864C54.368 269.744 55.3548 270.975 56.3444 272.187C57.4403 273.533 58.6107 274.817 59.827 276.051C60.1497 276.378 60.4756 276.698 60.8072 277.013L61.1408 277.326C61.0892 277.203 61.0433 277.077 61.0031 276.948C60.3318 274.86 61.1322 272.141 63.2234 271.185C64.5032 270.599 65.8323 270.956 67.0724 271.454L67.2625 271.531C68.932 272.221 70.6216 272.832 72.36 273.321C79.4455 275.318 86.8409 275.65 94.1014 276.647C96.8983 277.034 99.7468 277.521 102.529 278.237C103.591 273.737 106.193 269.423 109.015 265.874C122.532 248.895 144.824 243.284 165.218 239.651C167.076 239.322 168.617 241.78 169.699 241.198C171.75 240.098 173.554 238.54 175.137 236.847C178.514 233.235 180.909 228.986 183.723 224.962C185.115 222.974 188.316 224.753 187.025 226.887L186.393 227.93C183.789 232.202 180.905 236.605 177.171 239.918C175.186 241.677 172.983 243.066 170.464 243.934C168.557 244.59 165.88 245.143 163.792 244.506L163.541 244.142C163.624 244.264 163.708 244.385 163.792 244.507C169.242 252.393 176.081 259.067 183.287 265.366C190.561 271.721 198.407 277.412 206.301 282.976L206.959 283.439C219.819 274.072 230.682 261.855 238.304 247.896C236.707 247.704 235.126 246.681 233.761 245.919C232.117 244.997 230.571 243.897 229.366 242.43C226.741 239.236 227.083 235.119 226.609 231.244C226.581 231.003 226.899 230.943 227.045 231.063C228.468 232.243 228.967 234.177 229.561 235.847C230.215 237.683 230.955 239.196 232.456 240.488C233.853 241.691 235.557 242.576 237.212 243.364C238.065 243.768 242.303 244.807 242.785 245.667C250.106 243.951 257.238 246.916 262.662 251.917C267.903 256.75 271.75 263.032 275.147 269.234C278.77 275.851 281.739 282.748 284.298 289.838C286.891 297.034 288.879 304.388 289.972 311.962C290.894 318.347 291.46 324.833 291.826 331.29L291.871 332.097C297.287 323.609 302.837 315.21 308.503 306.886C307.215 303.451 308.641 299.945 311.053 297.292C313.727 294.356 317.424 292.992 320.961 291.405L321.426 291.195C323.131 290.419 324.83 289.564 326.303 288.401C327.72 287.278 328.761 285.731 330.253 284.697C332.422 283.19 336.357 283.511 336.458 286.802C336.509 288.61 335.732 290.592 335.021 292.216C334.215 294.053 333.127 295.717 331.836 297.246C331.777 297.318 331.712 297.374 331.645 297.418L331.595 297.45C333.38 297.745 335.178 297.982 337.011 298.066C340.709 298.235 344.447 297.962 348.067 297.183C351.773 296.387 355.365 295.092 358.698 293.287C361.547 291.746 364.186 289.753 367.422 289.283C367.72 289.237 368.021 289.208 368.331 289.191C368.848 289.163 369.364 289.77 369.16 290.279C369.048 290.56 368.931 290.838 368.802 291.119C367.683 293.58 365.967 295.967 363.827 297.778L363.661 297.917C364.416 297.656 365.159 297.364 365.89 297.034C370.19 295.101 374.091 292.179 378.701 291.004C378.919 290.947 379.14 290.896 379.361 290.847C380.787 290.54 381.538 292.087 380.701 293.147C380.566 293.319 380.431 293.488 380.291 293.657C378.234 296.206 375.965 298.573 373.463 300.698C372.605 301.426 371.722 302.13 370.821 302.804C370.442 303.089 370.06 303.368 369.674 303.643L369.484 303.777C369.935 303.46 370.379 303.136 370.821 302.804C373.644 301.95 376.426 300.939 379.149 299.819C380.23 299.375 381.071 300.469 381.185 301.368C381.57 304.382 378.219 306.562 376.039 308.011C373.853 309.467 371.446 310.572 368.982 311.46C364.244 313.17 359.268 313.946 354.3 314.642L351.887 314.978C342.335 316.312 332.359 317.906 325.505 325.328C321.664 329.487 319.065 334.655 316.687 339.739C314.312 344.818 312.226 350.032 310.247 355.274C308.196 360.699 306.409 366.225 304.51 371.705C302.766 376.737 300.682 381.704 298.619 386.621L298.293 387.397C293.913 397.847 288.681 407.69 281.389 416.415C280.187 417.856 278.245 415.811 279.355 414.384C286.982 404.564 292.289 392.978 296.67 381.419C298.664 376.16 300.333 370.774 302.249 365.486L303.39 362.345C304.912 358.157 306.448 353.975 308.05 349.82C310.078 344.563 312.307 339.37 314.857 334.345L315.128 333.816C317.624 328.969 320.591 324.192 324.673 320.524C332.022 313.918 341.801 312.334 351.255 311.079L354.23 310.687C358.227 310.157 362.235 309.571 366.122 308.504C368.366 307.891 370.557 307.106 372.617 306.023C373.437 305.594 374.238 305.121 375.012 304.606C372.803 305.253 370.563 305.783 368.282 306.198C367.166 306.401 366.062 306.553 364.96 306.659C362.124 306.94 359.309 306.928 356.403 306.777C356.157 306.762 356.076 306.376 356.34 306.327C358.364 305.968 360.39 305.518 362.408 305.031L363.013 304.883C363.024 304.548 363.156 304.193 363.432 303.855C364.436 302.635 366.343 302.01 367.666 301.148C369.051 300.245 370.394 299.272 371.673 298.229C372.844 297.275 373.968 296.267 375.05 295.213L375.374 294.895C375.266 295.001 375.158 295.107 375.05 295.212C372.129 296.559 369.361 298.286 366.312 299.352C363.888 300.203 361.346 300.775 358.782 300.979L358.622 300.991L358.463 301.002C355.787 301.194 353.093 301.116 350.457 301.695C350.161 301.761 350.069 301.366 350.333 301.254C352.637 300.297 355.032 299.928 357.453 299.481C357.505 299.292 357.637 299.123 357.866 299.014L358.486 298.718C360.331 297.834 362.05 296.941 363.584 295.505C364.938 294.236 366.065 292.752 366.911 291.107C363.523 291.849 360.549 294.413 357.468 295.854C354.111 297.427 350.56 298.555 346.911 299.197L346.495 299.268C339.676 300.404 331.477 300.259 325.368 296.719C325.173 296.605 325.313 296.344 325.514 296.375C327.247 296.659 328.962 296.994 330.677 297.292C330.342 296.986 330.193 296.436 330.58 295.994C332.121 294.231 333.339 292.216 334.118 290.011L334.267 289.58C334.626 288.557 335.232 286.968 334.613 286.046C334.022 285.166 332.631 285.287 331.799 285.659C330.069 286.438 328.919 288.384 327.462 289.558C325.872 290.841 324.065 291.792 322.215 292.643L321.824 292.82C318.624 294.258 315.205 295.468 312.688 298.005C311.334 299.369 310.17 301.073 309.779 302.984C309.602 303.861 309.602 304.763 309.837 305.631C310.023 306.31 310.413 306.728 310.19 307.418C309.897 308.309 308.862 309.375 308.328 310.168C307.708 311.085 307.092 312.005 306.475 312.924C305.244 314.763 304.019 316.608 302.794 318.45C300.345 322.139 297.921 325.846 295.517 329.564C294.734 330.775 293.955 331.987 293.178 333.2L292.014 335.021L291.399 335.981L290.35 337.628C290.388 337.78 290.385 337.94 290.336 338.081C290.157 338.589 289.822 338.937 289.406 339.189L289.332 339.232C283.21 348.895 277.186 358.62 271.102 368.305C270.778 371.261 270.473 374.22 270.21 377.179C269.61 383.877 269.2 390.591 269.068 397.314C269.005 400.569 269.266 403.843 269.406 407.094C269.475 408.646 269.569 410.196 269.692 411.745L269.783 412.843C269.904 414.352 269.973 415.851 269.429 417.289C268.947 418.552 267.479 418.836 266.609 417.874C255.27 417.418 243.921 417.071 232.573 416.856C212.26 416.467 191.939 416.527 171.623 416.919C161.42 417.117 151.213 417.395 141.012 417.739C135.986 417.905 130.958 418.14 125.929 418.209C123.22 418.245 118.955 417.26 118.737 414.217L118.731 414.124C118.393 414.215 118.043 414.29 117.684 414.344C117.525 414.369 117.371 414.362 117.23 414.329L117.159 414.31C113.121 415.539 108.012 413.785 104.174 412.763L103.858 412.68C100.194 411.726 97.2512 410.362 94.8502 407.332C90.6476 402.024 89.2133 394.897 88.4674 388.328C87.7675 382.146 87.7273 375.85 88.5793 369.68C88.0773 364.653 88.5678 359.465 89.1387 354.466C89.4198 351.994 89.7497 349.525 90.1456 347.067C90.3664 345.695 90.6562 344.337 90.9517 342.982C91.0696 342.441 91.1678 341.858 91.3174 341.294L91.3848 341.054C90.9258 341.114 90.4238 341.014 89.939 340.748C88.7858 340.115 88.4502 338.834 88.4301 337.608C88.367 333.913 88.8088 330.112 89.1989 326.439C89.5919 322.773 90.1312 319.091 90.8369 315.471L91.0195 314.537C91.5542 311.829 92.166 309.032 93.2437 306.487C89.1961 305.8 85.1599 305.07 81.2328 303.826C79.3165 303.216 77.429 302.457 75.6275 301.532ZM286.891 339.989C286.828 340.003 286.767 340.02 286.707 340.037C285.089 340.49 283.454 340.874 281.825 341.286C279.008 341.994 276.254 342.784 273.635 344.013C273.086 350.928 272.273 357.821 271.5 364.717L271.346 366.097C272.533 363.896 273.749 361.713 275.02 359.557C278.89 352.982 282.849 346.46 286.891 339.989ZM92.3716 340.673C92.3802 341.495 92.2081 342.349 92.1163 343.14C91.9671 344.423 91.8467 345.712 91.6946 346.995C91.3848 349.573 91.1209 352.154 90.9287 354.744C90.8053 356.397 90.725 358.056 90.6533 359.714C92.2799 353.644 94.4342 347.706 96.4824 341.759C96.14 341.723 95.7901 341.639 95.429 341.543L94.8213 341.38C94.4629 341.288 93.3004 341.002 92.3716 340.673ZM292.014 335.021L292.026 335.294C292.069 336.259 291.489 336.803 290.786 336.944C291.194 336.302 291.604 335.66 292.014 335.021ZM105.897 289.269C107.61 289.42 109.288 289.784 110.889 290.415L111.043 290.475C112.227 290.931 113.958 291.504 114.345 292.766C114.454 293.124 114.162 293.419 113.826 293.448C112.541 293.551 111.026 292.176 109.836 291.712C108.511 291.196 107.122 290.812 105.716 290.609C102.558 290.148 99.2649 290.498 96.293 291.646C96.118 291.715 96.009 291.437 96.1668 291.354C99.1616 289.727 102.492 288.968 105.897 289.269ZM69.6062 297.461C69.4082 297.286 69.2102 297.103 69.0152 296.92C67.4772 295.467 66.1152 293.771 65.1068 291.908L64.8414 291.404C64.0201 289.816 63.0115 287.554 64.9417 286.41C66.0949 285.725 67.4833 285.897 68.7685 286.312C68.8516 286.338 68.9348 286.367 69.018 286.395C69.5918 286.596 70.1454 286.836 70.6388 287.066C72.7817 288.048 74.6721 289.478 76.6515 290.738C78.7962 292.105 80.9139 292.978 83.3891 293.49L83.6222 293.537C85.9458 293.995 88.4645 294.29 90.0853 296.198C90.4926 296.679 90.1197 297.581 89.4169 297.344C84.9361 295.834 80.1942 295.502 76.0806 293.024C74.3766 291.998 72.7645 290.821 71.0232 289.85C70.0995 289.334 69.1458 288.883 68.1295 288.573L67.5743 288.41C67.249 288.315 66.8608 288.221 66.5998 288.315C66.1028 288.487 66.2614 288.752 66.4152 289.216L66.4305 289.263C67.6382 292.993 71.0806 296.115 74.2705 298.18C75.002 298.656 75.7507 299.091 76.5138 299.495C81.6789 302.244 87.4582 303.524 93.1345 305.043C95.3224 305.653 96.7788 306.072 97.5036 306.301C98.7142 306.201 100.094 306.628 101.006 307.138C101.893 307.633 102.607 308.298 103.146 309.08C103.146 309.08 103.665 309.513 103.76 310.183C104.033 310.804 104.216 311.474 104.308 312.174C104.36 312.583 104.256 312.898 104.061 313.122C104.648 322.114 102.216 331.056 99.4732 339.603L99.2015 340.445L99.0269 340.98C96.0693 350.04 92.6757 359.035 91.1611 368.482C90.1485 374.793 90.18 381.324 90.923 387.663L90.9754 388.101C91.7074 394.094 93.1159 400.818 96.9328 405.642C98.8796 408.104 101.186 409.198 104.135 409.99L104.297 410.033C106.964 410.735 109.718 411.729 112.469 412.03C115.022 412.307 117.162 411.36 119.46 410.471L119.463 410.469C124.302 406.192 126.5 399.964 128.123 393.679C132.332 377.414 131.81 360.53 129.423 344.028C128.178 335.405 126.485 326.857 124.799 318.312C123.955 314.041 123.046 309.779 122.291 305.493L121.843 302.971C121.596 301.57 121.357 300.168 121.153 298.759C120.877 296.865 120.794 295.003 120.699 293.098C118.382 289.263 115.017 286.103 111.118 283.837C108.327 282.213 105.372 281.087 102.323 280.271C93.6051 277.925 84.1013 278.091 75.329 276.286C72.3821 275.681 69.5847 274.782 66.7889 273.704L66.4076 273.556C65.1253 273.058 63.8172 272.78 63.1804 274.29C62.7271 275.364 62.9968 276.481 63.6767 277.383C65.3433 279.595 68.6939 280.62 71.2154 281.417C72.7329 281.898 74.282 282.279 75.8483 282.563C77.4145 282.846 78.9866 282.918 80.4897 283.471C81.0692 283.683 81.1839 284.602 80.4897 284.765C78.5849 285.209 76.6687 284.828 74.7754 284.459C72.6956 284.049 70.6474 283.468 68.6566 282.732C68.2894 282.596 67.9094 282.454 67.5224 282.302L67.2309 282.187C67.5321 282.405 67.8333 282.62 68.1374 282.835C68.2177 282.892 68.1689 283.044 68.0628 283.006C63.3818 281.263 59.1226 278.116 55.823 274.393L55.6588 274.207C54.497 272.877 51.8493 268.855 49.6175 269.976C47.5218 271.026 51.0942 275.076 52.4519 276.731L52.6095 276.925C54.1529 276.965 55.6474 277.925 56.8981 278.698C59.0697 280.042 61.3388 281.199 63.6509 282.282C68.2465 284.439 73.126 285.96 77.6728 288.226C77.733 288.257 77.6871 288.335 77.6297 288.326C74.7353 287.865 71.8724 287.129 69.0755 286.215L68.9507 286.176L68.8259 286.135C67.0789 285.562 65.3549 284.915 63.6595 284.224C61.7748 283.456 59.9332 282.594 58.146 281.617C56.5281 280.735 54.7323 279.145 52.8562 278.91C52.6554 278.885 52.4776 278.881 52.3227 278.896C50.1684 279.076 51.9498 282.64 52.5522 283.706C53.5361 285.456 54.7237 287.071 56.0863 288.547C58.8488 291.543 62.1965 293.918 65.8196 295.765C67.056 296.396 68.3211 296.951 69.6062 297.461Z" fill="black"/>
<path fill-rule="evenodd" clip-rule="evenodd" d="M244.546 131.635C244.534 131.414 244.855 131.389 244.915 131.583C248.429 143.176 250.595 152.211 252.876 164.096L253.549 167.593C255.349 176.918 257.167 186.256 258.702 195.627L258.792 196.186C259.561 201.037 260.005 205.934 259.041 210.795C258.14 215.338 255.679 219.503 252.483 222.82C246.307 229.231 237.724 233.236 229.089 235.026C224.723 235.931 220.22 236.281 215.77 235.966C213.553 235.811 211.338 235.498 209.167 235.037L208.927 234.986C206.738 234.514 204.795 233.951 203.633 231.895C203.341 231.377 203.458 230.488 204.072 230.222C205.231 229.723 206.083 229.515 207.348 229.658C208.555 229.795 209.735 230.159 210.928 230.385C213.209 230.818 215.526 231.035 217.847 231.087C222.405 231.187 226.975 230.617 231.333 229.26C238.819 226.925 246.427 222.459 250.802 215.779C255.948 207.921 253.899 198.383 252.535 189.705L252.494 189.442C251.114 180.572 249.749 171.701 248.424 162.825L247.859 159.02C246.373 148.969 244.97 141.793 244.546 131.635ZM168.53 107.031C172.266 104.572 176.91 103.967 181.299 104.001L181.848 104.008C187.469 104.094 215.758 104.766 225.23 104.973L227.483 105.02C230.465 105.076 236.48 105.135 239.579 105.192L239.758 105.195C241.278 105.224 242.798 105.235 244.319 105.284L244.542 105.292C245.681 105.34 246.628 105.511 247.52 106.312C247.974 106.719 248.151 107.338 248.109 107.928L248.103 108.005L250.36 108.203C251.893 108.338 252.704 109.711 252.095 111.1L252.064 111.168C250.983 113.471 250.157 120.174 249.577 122.652C249.273 123.955 249.029 125.279 248.885 126.611C248.771 127.659 248.76 128.71 248.174 129.633C246.926 131.601 243.415 131.583 243.352 128.796C243.349 128.707 243.352 128.621 243.361 128.538C234.525 128.152 222.463 128.189 213.639 128.716C205.397 129.209 197.193 130.326 189.118 132.036C187.072 132.469 185.033 132.941 183.008 133.454C181.347 133.872 179.307 134.121 177.821 135.018C176.157 136.026 176.189 137.834 176.37 139.556C176.564 141.38 176.887 140.44 177.345 142.103L177.374 142.208C177.847 144.013 178.432 145.797 179.207 147.493C179.648 148.462 180.36 149.392 180.09 150.507C179.938 151.134 179.442 151.804 178.986 152.243C176.909 154.234 173.398 152.965 171.986 155.692C170.509 158.543 170.473 162.406 170.347 165.562L170.34 165.746C170.248 167.921 170.274 170.1 170.417 172.269C170.546 174.245 171.074 176.202 170.397 178.101C169.903 179.482 168.292 179.611 167.448 178.488C167.351 178.359 167.263 178.227 167.179 178.094L167.098 177.961L167.093 177.964C167.173 178.09 167.247 178.219 167.319 178.35C167.396 178.497 167.204 178.657 167.087 178.531C165.102 176.374 162.201 176.804 159.955 178.313C157.68 179.849 156.783 182.765 156.665 185.38C156.533 188.282 156.791 191.682 158.002 194.363C158.512 195.498 159.241 196.54 160.449 196.973C160.997 197.168 161.519 197.142 162.09 197.188C162.683 197.233 163.398 197.532 163.974 197.491C164.723 197.438 165.396 198.292 165.183 199.008L165.168 199.056C165.156 199.09 165.145 199.124 165.133 199.156C165.162 199.182 165.191 199.213 165.211 199.259C167.391 203.708 170.38 207.666 173.685 211.339C175.34 213.175 177.176 214.862 179.095 216.423C180.041 217.194 181.04 217.965 182.092 218.586C182.442 218.789 182.763 218.927 183.157 219.039C183.34 219.09 183.55 219.116 183.728 219.176L183.912 219.239C183.925 219.244 183.937 219.247 183.948 219.251C184.476 219.311 184.921 219.66 185.096 220.208C185.552 221.634 184.723 222.894 183.306 223.287C181.771 223.716 180.324 222.963 179.107 222.099L179.026 222.041C176.545 220.257 174.258 218.254 172.279 215.916C168.363 211.302 165.91 205.959 164.775 200.05C164.493 200.654 164.115 201.181 163.458 201.548C162.437 202.121 161.217 202.121 160.099 201.929C157.847 201.548 155.928 200.176 154.645 198.319C153.314 196.394 152.818 194.057 152.517 191.78C152.219 189.499 152.072 187.211 152.371 184.925C152.798 181.642 154.178 178.396 156.86 176.597C154.852 172.229 154.499 167.33 154.643 162.547C154.818 156.657 155.836 150.702 156.619 144.866L158.845 128.278L158.936 127.609C159.474 123.706 160.128 119.783 161.59 116.106C163.033 112.483 165.225 109.205 168.53 107.031ZM159.161 185.509C162.838 183.727 166.811 185.369 168.791 188.826C170.512 191.832 165.395 193.819 164.541 190.721L164.516 190.625C163.954 188.279 161.665 186.251 159.275 185.936C159.078 185.907 158.931 185.621 159.161 185.509Z" fill="black"/>
<path fill-rule="evenodd" clip-rule="evenodd" d="M224.663 213.406C222.735 212.62 221.014 211.31 219.756 209.636C219.319 209.054 219.205 208.439 219.297 207.877C219.4 207.245 219.775 206.673 220.285 206.288C220.797 205.903 221.438 205.713 222.058 205.81C222.596 205.894 223.132 206.188 223.556 206.799L223.644 206.921C224.392 207.931 225.367 208.76 226.477 209.294C227.547 209.809 228.744 210.05 229.983 209.91C232.342 209.644 233.968 208.37 235.696 206.64C235.911 206.421 236.125 206.196 236.34 205.967C236.476 205.759 236.665 205.626 236.875 205.556C237.107 205.478 237.371 205.483 237.612 205.567C237.844 205.648 238.052 205.801 238.192 206.006C238.324 206.2 238.399 206.44 238.375 206.716C238.217 208.509 237.278 210.109 235.945 211.366C234.464 212.761 232.501 213.727 230.652 214.065C228.616 214.438 226.542 214.171 224.663 213.406ZM231.613 185.745C233.779 187.06 237.08 190.126 234.749 193.386C232.006 196.26 228.057 192.965 226.111 191.474C224.306 190.319 222.279 193.29 223.953 194.639C238.016 205.036 243.723 186.089 232.709 184.2C231.496 183.991 231.045 185.339 231.613 185.745ZM206.412 173.651C206.651 170.684 211.176 170.011 211.626 172.946C212.029 175.576 211.554 177.992 210.368 180.359C209.235 182.621 206.386 181.566 206.171 179.506C205.882 176.745 206.263 175.496 206.412 173.651ZM240.854 172.338C241.484 171.513 242.395 170.95 243.486 171.268C246.896 172.263 245.891 177.096 244.694 179.449C244.043 180.726 241.94 181.05 240.99 179.925C239.441 178.091 238.699 174.427 240.668 172.62C240.721 172.527 240.781 172.433 240.854 172.338ZM210.32 160.67L210.859 160.576C212.525 160.288 214.596 160.012 215.775 161.349C216.4 162.058 216.615 163.377 215.775 164.056C214.297 165.25 212.663 164.787 210.892 164.888C209.432 164.972 208.03 165.213 206.624 165.615C203.539 166.495 201.026 168.102 198.392 169.866C198.046 170.098 197.693 169.656 197.858 169.334C199.379 166.359 202.326 163.916 205.278 162.427C206.853 161.632 208.577 160.972 210.32 160.67ZM237.746 159.338L238.158 159.422C242.644 160.358 248.472 162.229 250.596 166.628C250.677 167.251 250.591 167.384 250.522 167.471L250.499 167.5C250.441 167.574 250.396 167.677 250.126 167.762C250.051 167.744 249.975 167.725 249.898 167.705C248.925 167.45 248.154 167.099 247.409 166.735L246.6 166.337C245.662 165.878 244.715 165.435 243.712 165.108C241.572 164.411 239.37 163.92 237.134 163.658C236.649 163.601 236.183 163.437 235.814 163.157C235.465 162.892 235.198 162.524 235.076 162.035C234.918 161.402 234.964 160.923 235.304 160.352C235.559 159.923 235.925 159.626 236.345 159.456C236.774 159.282 237.261 159.241 237.746 159.338Z" fill="black"/>
</g>
</svg>
