<?xml version="1.0" encoding="utf-8"?>
<!-- Generator: Adobe Illustrator 25.0.1, SVG Export Plug-In . SVG Version: 6.00 Build 0)  -->
<svg version="1.0" id="Layer_1" xmlns="http://www.w3.org/2000/svg" xmlns:xlink="http://www.w3.org/1999/xlink" x="0px" y="0px"
	 viewBox="0 0 298 220" style="enable-background:new 0 0 298 220;" xml:space="preserve">
<style type="text/css">
	.st0{fill:#fff;}
	.st1{fill:#000;}
</style>
<path class="st0" d="M149,30.3L149,30.3c44,0,79.7,35.7,79.7,79.7v0c0,44-35.7,79.7-79.7,79.7h0c-44,0-79.7-35.7-79.7-79.7v0
	C69.3,66,105,30.3,149,30.3z"/>
<path class="st1" d="M147.5,91.5c-2.7,0.2-6.2-4.9-12.2-2.5c-5.8,2.3-6.2,6.7-12.5,27c-1.5,4.8-3.1,8.4-0.2,12c2.5,3,6.8,3.9,10.2,2
	c0.9-0.4,1.6-1.6,2.5-3c0.7-1.5,9.8-25,9.8-25c1.1-2.1,5.1-1.9,4.5,2.3c0,1.4-6.4,16.5-6.4,17.3c-0.8,5.4,6.3,5.9,8.4,0.9
	c0.2-0.2,1.1-2.3,3-5.9c8.9-17.8,5.5-10.9,8.2-16.1c0.9-1.1,1.8-1.8,2.5-1.8c1.1,0,1.8,0.9,1.6,2.5c0,1.8-6.7,13.8-8.6,19.5
	c-0.9,4.8,1.5,9.1,5.7,11.4c1.3,0.9,9.1,2.3,11.6,0.5c2.6-0.9,1.9-4.6-0.2-5c-2.3-1.1-3.4-0.2-6.3-1.4c-6.6-2.6,8.1-24.3,7.2-31.1
	c-0.7-4.3-3-6.4-7.5-6.6c-2.7,0-3,1.2-4.3,1.1s-4-3.3-7.9-3.2s-6.7,5-8.8,5.1L147.5,91.5z"/>
</svg>
