<svg width="20" height="21" viewBox="0 0 20 21" fill="none" xmlns="http://www.w3.org/2000/svg">
<path d="M16.2498 10.9168C16.2498 9.76683 17.1832 8.8335 18.3332 8.8335V8.00016C18.3332 4.66683 17.4998 3.8335 14.1665 3.8335H5.83317C2.49984 3.8335 1.6665 4.66683 1.6665 8.00016V8.41683C2.8165 8.41683 3.74984 9.35016 3.74984 10.5002C3.74984 11.6502 2.8165 12.5835 1.6665 12.5835V13.0002C1.6665 16.3335 2.49984 17.1668 5.83317 17.1668H14.1665C17.4998 17.1668 18.3332 16.3335 18.3332 13.0002C17.1832 13.0002 16.2498 12.0668 16.2498 10.9168Z" stroke="black" stroke-linecap="round" stroke-linejoin="round"/>
<path d="M8.3335 3.8335L8.3335 17.1668" stroke="black" stroke-linecap="round" stroke-linejoin="round" stroke-dasharray="4 4"/>
</svg>
